<svg xmlns="http://www.w3.org/2000/svg" xmlns:xlink="http://www.w3.org/1999/xlink" width="294.776" height="223.403" viewBox="0 0 294.776 223.403">
  <defs>
    <clipPath id="clip-path">
      <rect id="Rectangle_747" data-name="Rectangle 747" width="223.403" height="223.403" fill="none"/>
    </clipPath>
    <clipPath id="clip-path-3">
      <rect id="Rectangle_743" data-name="Rectangle 743" width="223.403" height="223.403" fill="#c10058"/>
    </clipPath>
    <clipPath id="clip-path-5">
      <rect id="Rectangle_745" data-name="Rectangle 745" width="175.007" height="175.007" fill="#c10058"/>
    </clipPath>
    <clipPath id="clip-path-6">
      <rect id="Rectangle_744" data-name="Rectangle 744" width="175.006" height="175.006" fill="#c10058"/>
    </clipPath>
  </defs>
  <g id="Groupe_1197" data-name="Groupe 1197" transform="translate(-124 -134.367)">
    <g id="Groupe_1188" data-name="Groupe 1188">
      <g id="Groupe_1187" data-name="Groupe 1187">
        <g id="Groupe_1144" data-name="Groupe 1144" transform="translate(124 134.367)">
          <g id="Groupe_1143" data-name="Groupe 1143" clip-path="url(#clip-path)">
            <g id="Groupe_1142" data-name="Groupe 1142">
              <g id="Groupe_1141" data-name="Groupe 1141" clip-path="url(#clip-path)">
                <g id="Groupe_1135" data-name="Groupe 1135" opacity="0.15">
                  <g id="Groupe_1134" data-name="Groupe 1134">
                    <g id="Groupe_1133" data-name="Groupe 1133" clip-path="url(#clip-path-3)">
                      <g id="Groupe_1132" data-name="Groupe 1132">
                        <g id="Groupe_1131" data-name="Groupe 1131" clip-path="url(#clip-path-3)">
                          <path id="Tracé_1298" data-name="Tracé 1298" d="M111.7,0A111.7,111.7,0,1,1,0,111.7,111.7,111.7,0,0,1,111.7,0" transform="translate(0.001)" fill="#c10058"/>
                        </g>
                      </g>
                    </g>
                  </g>
                </g>
                <g id="Groupe_1140" data-name="Groupe 1140" transform="translate(26.063 26.063)" opacity="0.15">
                  <g id="Groupe_1139" data-name="Groupe 1139">
                    <g id="Groupe_1138" data-name="Groupe 1138" clip-path="url(#clip-path-5)">
                      <g id="Groupe_1137" data-name="Groupe 1137" transform="translate(0)">
                        <g id="Groupe_1136" data-name="Groupe 1136" clip-path="url(#clip-path-6)">
                          <path id="Tracé_1299" data-name="Tracé 1299" d="M142.2,54.7a87.5,87.5,0,1,1-87.5,87.5,87.5,87.5,0,0,1,87.5-87.5" transform="translate(-54.698 -54.697)" fill="#c10058"/>
                        </g>
                      </g>
                    </g>
                  </g>
                </g>
                <path id="Tracé_1300" data-name="Tracé 1300" d="M242.23,227.3a2.587,2.587,0,0,1-1.159-2.36,16.013,16.013,0,0,0-8.178-13.474c-.248-.149-.526-.249-.972-.456,0,1.337.009,2.546,0,3.755-.015,1.753-.933,2.42-2.628,1.9-1.349-.413-2.692-.851-4.119-1.3-.813,2.718-2.788,4.1-5.336,4.784a10.9,10.9,0,0,1-8.558-.99,5.386,5.386,0,0,1-2.949-5.148c.081-2.5.018-5,.018-7.779a24.64,24.64,0,0,1-14.006,5.216c0,1.093.027,2.157-.007,3.218a1.691,1.691,0,0,1-1.546,1.864A1.653,1.653,0,0,1,191,214.8c-.05-1.076-.01-2.156-.01-3.333a24.585,24.585,0,0,1-14.013-5.281v4.429c0,1.158-.044,2.319.01,3.475a5.25,5.25,0,0,1-2.444,4.752c-3.245,2.313-8.8,2.365-11.937-.061a21.477,21.477,0,0,1-2.822-3.3c-1.034.326-2.376.759-3.724,1.172-1.751.537-2.647-.129-2.655-1.973q-.011-2.858,0-5.717c0-1.408.319-1.825,1.674-2.26,1.386-.444,2.759-.933,4.164-1.3.713-.187.97-.492.93-1.226a14.046,14.046,0,0,1,.061-2.8,4.8,4.8,0,0,1,3.488-4.12c3.5-1.111,3.063-.963,3.2-4.428a4.806,4.806,0,0,0-1.6-4.016,34.7,34.7,0,0,1-3.348-3.912c-2.018-2.6-2.642-5.722-3.139-8.873a161.266,161.266,0,0,1-2.029-25.1,43.408,43.408,0,0,1,4.624-20.552c.243-.463.478-.931.757-1.372a1.707,1.707,0,0,1,2.3-.753,1.725,1.725,0,0,1,.608,2.43,58.67,58.67,0,0,0-2.612,5.805c-.847,2.522-1.384,5.148-2.131,8.023,3.03-.973,5.39.125,7.788,1.055,2.048.794,4.117,1.533,6.393,2.376-1.152-8.264-2.271-16.3-3.424-24.568-.821.805-1.5,1.473-2.186,2.144-.927.912-1.918,1.012-2.655.266s-.665-1.632.209-2.569a32.753,32.753,0,0,1,18.167-9.927c8.766-1.7,17.279-.885,25.294,3.22,9.354,4.791,14.74,12.682,17.236,22.711a55.442,55.442,0,0,1,1.3,15.58,201.993,201.993,0,0,1-2.1,22.067,19.358,19.358,0,0,1-6.354,11.889c-2.246,2.025-1.469,4.392-1.47,6.709,0,.379.651.858,1.1,1.113a11.011,11.011,0,0,0,1.792.62,5.088,5.088,0,0,1,3.717,5.134c.012.894,0,1.788,0,2.754,1.776.567,3.52,1.1,5.248,1.678,7.46,2.5,12.089,7.555,13.71,15.284.2.944.207,1.927.336,2.888a2.217,2.217,0,0,1-1.11,2.363Zm-59.8-47.156c.817,5.887,1.6,11.582,2.428,17.269a1.312,1.312,0,0,0,.83.813,27.009,27.009,0,0,0,13.955.038,1.048,1.048,0,0,0,.9-1.057c.39-3.036.848-6.064,1.269-9.1.362-2.612.707-5.226,1.078-7.977-1.032.15-1.909.269-2.783.406-1.314.205-2.148-.242-2.347-1.272-.208-1.083.418-1.816,1.814-2.026a44.821,44.821,0,0,0,11.306-3.1c4.785-2.083,9.145-4.789,12.37-8.991a6.6,6.6,0,0,0,1.428-3.2c.307-3.569.36-7.162.482-10.746a6.251,6.251,0,0,0-.19-1.661,2.449,2.449,0,0,0-3.179-2.016,12.439,12.439,0,0,0-2.123.7,69.219,69.219,0,0,1-18.951,5.132,66.764,66.764,0,0,1-31.086-3.613c-1.956-.734-3.89-1.539-5.883-2.151-1.789-.548-3,.255-3.406,2.069a6.626,6.626,0,0,0-.165,1.663c.109,3.248.3,6.495.359,9.744a6.777,6.777,0,0,0,1.654,4.291c3.829,4.694,8.866,7.593,14.449,9.647a46.865,46.865,0,0,0,14.931,2.673c.336.01.674,0,1.009.024a1.666,1.666,0,1,1,.025,3.329c-1.829-.028-3.659-.136-5.482-.294-1.513-.131-3.016-.381-4.689-.6m-3.176-61.84c-1.52.8-2.842,1.549-4.205,2.207-.759.366-.842.887-.737,1.63q1.81,12.8,3.568,25.615a1.3,1.3,0,0,0,1.191,1.3,66.784,66.784,0,0,0,26.811.092,1.7,1.7,0,0,0,1.619-1.778c.495-4.037,1.1-8.06,1.665-12.089.621-4.435,1.251-8.869,1.847-13.307.048-.358-.011-.955-.233-1.089-1.48-.889-3.018-1.683-4.68-2.586-.1.608-.163.928-.209,1.251-.961,6.837-1.931,13.672-2.87,20.512a1.886,1.886,0,0,1-1.789,1.808,59.869,59.869,0,0,1-17.082.01,1.933,1.933,0,0,1-1.852-1.874c-.709-5.29-1.463-10.572-2.206-15.857-.263-1.87-.536-3.738-.839-5.847m20.539,20.58c1.026-7.359,2.014-14.446,3-21.506-4.611-2.006-16.277-1.979-20.25.034.987,7.067,1.977,14.155,3,21.472Zm-18.6,57.764a8.849,8.849,0,0,0-.005-1.049c-.7-5.024-1.448-10.043-2.087-15.074a1.732,1.732,0,0,0-1.5-1.682,39.666,39.666,0,0,1-14-7.28c-.709-.579-1.381-1.2-2.07-1.807l-.26.1c.507,2.962.861,5.961,1.579,8.87a11.332,11.332,0,0,0,2.194,4.57,99.662,99.662,0,0,0,7.858,8.1,29.443,29.443,0,0,0,8.292,5.251m22.813.041c.587-.262.962-.409,1.32-.591a44.04,44.04,0,0,0,15.334-13.3,16.894,16.894,0,0,0,2.013-4.79,20.123,20.123,0,0,0,.639-3.4c.238-1.586.428-3.178.665-4.96-7.239,5.8-8.764,6.638-16.855,9.447a1.453,1.453,0,0,0-.774.977c-.481,3.019-.9,6.049-1.319,9.077-.339,2.432-.66,4.867-1.023,7.546m10.207-73.3L210.8,147.9c1.669-.588,3.159-1.124,4.657-1.638,2.987-1.024,5.787-2.913,9.286-1.836-1.192-8.219-4.178-15.334-10.522-21.035m-43.968,70.3c0,.556.008.912,0,1.268a4.961,4.961,0,0,1-3.386,4.79,14.3,14.3,0,0,1-1.7.566,1.956,1.956,0,0,0-1.65,2.177q.038,5.829,0,11.658a2.177,2.177,0,0,0,1.046,1.967c2.13,1.438,6.05,1.468,8.078-.074a2.566,2.566,0,0,0,.938-1.741c.07-5.791.046-11.583.031-17.374a1.288,1.288,0,0,0-.276-.893c-.936-.776-1.931-1.481-3.08-2.344m44.855-.018c-1.044.785-1.938,1.38-2.73,2.089a1.953,1.953,0,0,0-.634,1.264c-.041,5.716-.015,11.433-.04,17.15a2.131,2.131,0,0,0,1.046,1.956,8.107,8.107,0,0,0,8.01-.008,2.17,2.17,0,0,0,1.061-1.959c-.026-3.923-.019-7.846-.007-11.77a1.8,1.8,0,0,0-1.419-2c-3.447-.808-5.679-2.6-5.287-6.719M185.067,201.6c0,1.6.031,3.052-.014,4.5-.02.646.2.971.831,1.066a55.1,55.1,0,0,0,6.174.915,21.044,21.044,0,0,0,14.454-4.708,4.484,4.484,0,0,0,1.707-4.976,31.669,31.669,0,0,1-23.152,3.2m-3.708,3.8.344-.252c0-1.338.011-2.676-.01-4.014,0-.233-.08-.6-.233-.673-1.45-.692-2.925-1.333-4.65-2.1.185,1.32-.018,2.674.563,3.416a29.386,29.386,0,0,0,3.987,3.627m-24.471,7.446c.942-.289,1.873-.545,2.777-.875a.869.869,0,0,0,.47-.618c.054-.868.022-1.741.022-2.644-3.507.836-3.507.836-3.372,3.861a1.822,1.822,0,0,0,.1.276m68.327-4.2v3.182l3.342,1.041c0-.987.04-1.807-.024-2.619a.968.968,0,0,0-.506-.686c-.895-.345-1.823-.6-2.813-.918" transform="translate(-80.308 -58.87)" fill="#c10058"/>
                <path id="Tracé_1301" data-name="Tracé 1301" d="M128.179,334.937a2.346,2.346,0,0,1-1.125-2.362,19.671,19.671,0,0,1,6.517-13.924,1.721,1.721,0,0,1,2.5-.091,1.683,1.683,0,0,1-.168,2.487,16.736,16.736,0,0,0-5.534,12.2c-.02.575-.7,1.128-1.069,1.691Z" transform="translate(-66.51 -166.51)" fill="#c10058"/>
                <path id="Tracé_1302" data-name="Tracé 1302" d="M269.839,349.768c-.8-.528-1.4-1.185-1.043-2.218s1.221-1.16,2.187-1.155q6.1.034,12.2,0c.949,0,1.809.09,2.2,1.125.4,1.057-.254,1.666-.971,2.245Z" transform="translate(-140.661 -181.341)" fill="#c10058"/>
                <path id="Tracé_1303" data-name="Tracé 1303" d="M233.257,345.362a2.718,2.718,0,0,1-1.021-2.532c.055-1-.013-2.007.024-3.008a1.678,1.678,0,1,1,3.339,0,23.241,23.241,0,0,1-.036,3.671,6.236,6.236,0,0,1-.96,1.869Z" transform="translate(-121.573 -176.935)" fill="#c10058"/>
                <path id="Tracé_1304" data-name="Tracé 1304" d="M59.068,202.761v-3.75a20.808,20.808,0,0,0,11.863,4.471c0,1-.033,1.911.01,2.822a1.4,1.4,0,0,0,1.511,1.46,1.431,1.431,0,0,0,1.308-1.578c.029-.9.006-1.8.006-2.725a20.86,20.86,0,0,0,11.858-4.416c0,2.35.053,4.47-.015,6.586a4.558,4.558,0,0,0,2.5,4.358,9.229,9.229,0,0,0,7.245.838,5.846,5.846,0,0,0,4.517-4.05l1.508.481.063-2.99-1.536-.478V201.1c.838.266,1.624.486,2.382.778a.818.818,0,0,1,.428.581c.028.355.032.712.03,1.089l2.543-1.415-1.523-2.806c-1.286-.422-2.581-.824-3.9-1.245,0-.818.009-1.574,0-2.331a4.307,4.307,0,0,0-3.147-4.346,9.34,9.34,0,0,1-1.517-.525c-.382-.216-.933-.621-.933-.942,0-1.962-.657-3.965,1.245-5.68a16.394,16.394,0,0,0,4.345-6.178l-.994-6.912v-3.094c-.2,1.509-.362,2.857-.563,4.2a17,17,0,0,1-.542,2.88,14.281,14.281,0,0,1-1.7,4.055,37.28,37.28,0,0,1-12.982,11.263c-.3.154-.62.279-1.117.5.307-2.269.579-4.329.867-6.389.357-2.564.71-5.128,1.116-7.684a1.231,1.231,0,0,1,.656-.827c6.85-2.378,8.141-3.087,14.269-8V163.32a7.409,7.409,0,0,1-.622.952,25.5,25.5,0,0,1-10.472,7.612,37.937,37.937,0,0,1-9.571,2.62c-1.182.178-1.713.8-1.536,1.715.168.872.874,1.251,1.987,1.077.74-.116,1.482-.217,2.356-.343-.314,2.329-.606,4.542-.912,6.753-.356,2.567-.744,5.13-1.074,7.7a.887.887,0,0,1-.76.895,22.865,22.865,0,0,1-11.814-.032,1.109,1.109,0,0,1-.7-.688c-.7-4.815-1.364-9.637-2.056-14.621,1.417.185,2.688.4,3.97.507,1.543.133,3.092.226,4.64.249a1.41,1.41,0,1,0-.021-2.818c-.284-.018-.569-.012-.854-.02a39.665,39.665,0,0,1-12.641-2.263c-4.727-1.738-8.991-4.192-12.232-8.166a5.738,5.738,0,0,1-1.4-3.633c-.053-2.751-.213-5.5-.3-8.249a5.608,5.608,0,0,1,.14-1.409,2.073,2.073,0,0,1,2.884-1.752c1.687.518,3.325,1.2,4.98,1.821a56.517,56.517,0,0,0,26.317,3.059A58.611,58.611,0,0,0,95.2,149.943a10.553,10.553,0,0,1,1.8-.591,2.214,2.214,0,0,1,1.858.3v-.393l.17-2.666c-2.746-.616-5,.856-7.39,1.677-1.268.435-2.53.889-3.942,1.387.975-6.986,1.924-13.782,2.9-20.75a27.314,27.314,0,0,1,8.559,15.776l.512-8.031A26.788,26.788,0,0,0,86.973,123.09a32.254,32.254,0,0,0-21.414-2.726,27.727,27.727,0,0,0-15.38,8.4c-.74.793-.79,1.554-.177,2.175s1.463.547,2.247-.225c.577-.567,1.155-1.133,1.851-1.815.975,7,1.923,13.8,2.9,20.8-1.927-.714-3.679-1.339-5.412-2.012-2.031-.788-4.029-1.717-6.594-.893.632-2.434,1.086-4.657,1.8-6.792a49.716,49.716,0,0,1,2.211-4.915,1.461,1.461,0,0,0-.515-2.057,1.445,1.445,0,0,0-1.947.638c-.235.373-.436.77-.641,1.162a36.749,36.749,0,0,0-3.915,17.4,136.494,136.494,0,0,0,1.718,21.251c.421,2.667.949,5.309,2.657,7.511a29.361,29.361,0,0,0,2.834,3.312,4.067,4.067,0,0,1,1.358,3.4c-.118,2.933.253,2.808-2.711,3.749a4.066,4.066,0,0,0-2.953,3.488,11.858,11.858,0,0,0-.052,2.367c.033.621-.184.879-.788,1.038-1.189.313-2.352.727-3.525,1.1-1.147.367-1.413.721-1.418,1.913q-.008,2.42,0,4.84c.006,1.561.765,2.125,2.247,1.671,1.141-.35,2.278-.717,3.152-.993a18.182,18.182,0,0,0,2.389,2.795c2.66,2.054,7.358,2.01,10.106.051a4.444,4.444,0,0,0,2.069-4.023c-.045-.979-.008-1.961-.008-2.941m29.427-11.506a1.654,1.654,0,0,1,.537-1.07c.67-.6,1.427-1.1,2.311-1.769-.332,3.484,1.558,5,4.476,5.688a1.524,1.524,0,0,1,1.2,1.7c-.01,3.321-.017,6.643.006,9.964a1.839,1.839,0,0,1-.9,1.659,6.866,6.866,0,0,1-6.782.006,1.805,1.805,0,0,1-.885-1.656c.021-4.84,0-9.679.034-14.519m-22.58,3.872a26.813,26.813,0,0,0,19.6-2.711,3.8,3.8,0,0,1-1.445,4.212,17.815,17.815,0,0,1-12.236,3.985,46.7,46.7,0,0,1-5.227-.774c-.534-.081-.721-.355-.7-.9.038-1.225.012-2.452.012-3.809m15-71.3L78.38,142.031H66.314l-2.539-18.178c3.364-1.7,13.24-1.727,17.144-.029m-24.111,4.033c-.089-.629-.019-1.07.624-1.38,1.155-.557,2.273-1.188,3.56-1.869.256,1.786.488,3.368.71,4.951.628,4.474,1.267,8.947,1.867,13.424a1.637,1.637,0,0,0,1.568,1.587,50.669,50.669,0,0,0,14.461-.009,1.6,1.6,0,0,0,1.515-1.531c.795-5.79,1.616-11.577,2.43-17.365.039-.274.09-.545.176-1.059,1.408.764,2.709,1.436,3.962,2.189.188.113.238.618.2.922-.5,3.758-1.038,7.511-1.564,11.266-.477,3.411-.991,6.817-1.409,10.235a1.441,1.441,0,0,1-1.37,1.5,56.538,56.538,0,0,1-22.7-.078,1.1,1.1,0,0,1-1.008-1.1q-1.484-10.846-3.021-21.685m-12,75.528a.736.736,0,0,1-.4.524c-.766.279-1.554.5-2.351.741a1.573,1.573,0,0,1-.087-.233c-.115-2.562-.115-2.562,2.855-3.269,0,.764.027,1.5-.019,2.238m11.377,2.5a2.168,2.168,0,0,1-.794,1.474,6.653,6.653,0,0,1-6.839.063,1.842,1.842,0,0,1-.886-1.665q.034-4.935,0-9.87a1.656,1.656,0,0,1,1.4-1.844,12.1,12.1,0,0,0,1.438-.479,4.2,4.2,0,0,0,2.867-4.055c.007-.3,0-.6,0-1.074.973.73,1.814,1.327,2.607,1.984a1.092,1.092,0,0,1,.234.756c.013,4.9.033,9.807-.026,14.709m-.567-19.394a84.287,84.287,0,0,1-6.652-6.858,9.591,9.591,0,0,1-1.857-3.869c-.608-2.463-.908-5-1.337-7.51l.221-.084c.583.511,1.153,1.04,1.753,1.531A33.583,33.583,0,0,0,59.6,175.858a1.468,1.468,0,0,1,1.269,1.424c.541,4.26,1.173,8.508,1.766,12.761a7.4,7.4,0,0,1,0,.889,24.931,24.931,0,0,1-7.02-4.446m7.242,7.676c.13.062.194.373.2.57.018,1.133.009,2.266.009,3.4l-.291.213a24.892,24.892,0,0,1-3.375-3.07c-.491-.629-.32-1.774-.476-2.892,1.46.653,2.708,1.2,3.936,1.781" transform="translate(-20.473 -62.641)" fill="#c10058"/>
                <path id="Tracé_1305" data-name="Tracé 1305" d="M303.9,149.6a1.46,1.46,0,0,0-.516-2.057,1.445,1.445,0,0,0-1.947.638c-.236.374-.436.77-.641,1.162l1.378,3.9c.524-1.233,1.161-2.427,1.725-3.646" transform="translate(-157.469 -77.155)" fill="#c10058"/>
                <path id="Tracé_1306" data-name="Tracé 1306" d="M365.165,214.882c-.11-.813-.117-1.645-.284-2.444-1.373-6.544-5.291-10.824-11.607-12.94-1.463-.49-2.939-.941-4.443-1.421,0-.818.009-1.574,0-2.331a4.308,4.308,0,0,0-3.147-4.346,9.318,9.318,0,0,1-1.517-.525c-.382-.215-.934-.621-.933-.942,0-1.962-.657-3.965,1.245-5.68a16.387,16.387,0,0,0,5.38-10.065,171.075,171.075,0,0,0,1.776-18.682,46.958,46.958,0,0,0-1.1-13.19c-2.113-8.49-6.672-15.171-14.592-19.227a32.253,32.253,0,0,0-21.414-2.726,27.729,27.729,0,0,0-15.38,8.4c-.74.793-.79,1.554-.177,2.175s1.463.547,2.248-.225c.577-.568,1.155-1.133,1.85-1.815l2.9,20.8c-1.926-.714-3.678-1.339-5.412-2.012-.44-.171-.88-.347-1.323-.512l-.09,3.032c.891.335,1.777.685,2.668,1.019a56.531,56.531,0,0,0,26.317,3.059,58.593,58.593,0,0,0,16.044-4.345,10.548,10.548,0,0,1,1.8-.591,2.073,2.073,0,0,1,2.691,1.707,5.275,5.275,0,0,1,.161,1.406c-.1,3.035-.148,6.076-.408,9.1a5.59,5.59,0,0,1-1.208,2.709,25.5,25.5,0,0,1-10.472,7.611,37.931,37.931,0,0,1-9.571,2.62c-1.182.178-1.712.8-1.536,1.715.168.872.874,1.251,1.987,1.077.74-.116,1.482-.216,2.356-.343-.314,2.329-.606,4.542-.912,6.753-.356,2.567-.744,5.13-1.074,7.7a.887.887,0,0,1-.76.895,22.865,22.865,0,0,1-11.814-.032,1.109,1.109,0,0,1-.7-.688c-.7-4.815-1.364-9.637-2.056-14.621,1.417.185,2.689.4,3.97.507,1.543.133,3.092.226,4.641.249a1.41,1.41,0,1,0-.021-2.818c-.284-.018-.569-.012-.854-.02a39.675,39.675,0,0,1-12.64-2.263,30.632,30.632,0,0,1-9.118-5.036l-.07,2.333-.177,1.052a34.164,34.164,0,0,0,10.187,4.893,1.468,1.468,0,0,1,1.269,1.424c.541,4.26,1.174,8.508,1.766,12.762a7.406,7.406,0,0,1,0,.888,24.922,24.922,0,0,1-7.02-4.446,84.367,84.367,0,0,1-6.653-6.858,7.3,7.3,0,0,1-.812-1.181l-.667,3.964a20.42,20.42,0,0,0,1.713,1.894,4.067,4.067,0,0,1,1.358,3.4c-.118,2.933.254,2.807-2.711,3.748a4.066,4.066,0,0,0-2.953,3.488,11.9,11.9,0,0,0-.052,2.367c.033.621-.184.879-.787,1.038-.794.209-2.759,1.432-3.54,1.69l3.564,1.29c.226-.056.474-.115.748-.18,0,.3,0,.6.006.9l.939.891,1.13,6.741,1.634.913a9.488,9.488,0,0,0,8.472-.861,4.445,4.445,0,0,0,2.069-4.023c-.046-.978-.008-1.961-.008-2.941v-3.75a20.809,20.809,0,0,0,11.863,4.471c0,1-.033,1.911.009,2.822a1.4,1.4,0,0,0,1.512,1.46,1.431,1.431,0,0,0,1.308-1.578c.029-.9.006-1.8.006-2.725a20.859,20.859,0,0,0,11.857-4.416c0,2.351.053,4.47-.015,6.586a4.559,4.559,0,0,0,2.5,4.358,9.229,9.229,0,0,0,7.245.838,5.848,5.848,0,0,0,4.517-4.05c1.208.383,2.344.753,3.487,1.1,1.434.439,2.211-.125,2.225-1.61.009-1.023,0-2.047,0-3.178.377.175.612.259.822.385a13.556,13.556,0,0,1,6.923,11.407,2.189,2.189,0,0,0,.982,2h.949a1.878,1.878,0,0,0,.94-2m-35.278-91.059c-.834,5.977-1.671,11.977-2.539,18.207H315.283c-.865-6.194-1.7-12.194-2.539-18.178,3.364-1.7,13.24-1.727,17.144-.029m3.986,25.393a1.441,1.441,0,0,1-1.371,1.5,56.519,56.519,0,0,1-22.7-.078,1.1,1.1,0,0,1-1.008-1.1q-1.484-10.846-3.021-21.685c-.089-.629-.019-1.07.624-1.38,1.154-.557,2.273-1.188,3.56-1.869.257,1.786.488,3.368.71,4.951.629,4.474,1.267,8.947,1.867,13.424a1.637,1.637,0,0,0,1.568,1.587,50.688,50.688,0,0,0,14.461-.008,1.6,1.6,0,0,0,1.514-1.531c.8-5.79,1.616-11.577,2.43-17.365.039-.274.091-.545.177-1.059,1.407.764,2.709,1.436,3.962,2.189.188.113.238.618.2.922-.5,3.758-1.038,7.511-1.564,11.266-.478,3.411-.991,6.817-1.409,10.235m6.733-.942c-1.268.435-2.53.89-3.943,1.387l2.9-20.75c5.371,4.826,7.9,10.851,8.908,17.808-2.963-.911-5.333.688-7.862,1.555M305.153,205.88a2.172,2.172,0,0,1-.794,1.474,6.652,6.652,0,0,1-6.839.063,1.843,1.843,0,0,1-.885-1.665q.034-4.935,0-9.87a1.656,1.656,0,0,1,1.4-1.844,12.064,12.064,0,0,0,1.437-.479,4.2,4.2,0,0,0,2.867-4.055c.008-.3,0-.6,0-1.074.972.73,1.814,1.328,2.607,1.985a1.088,1.088,0,0,1,.234.756c.013,4.9.033,9.807-.026,14.709m6.881-7.749-.291.212a24.858,24.858,0,0,1-3.375-3.07c-.491-.628-.32-1.774-.477-2.892,1.46.652,2.708,1.2,3.936,1.781.13.062.194.373.2.57.018,1.133.009,2.266.009,3.4m21-1.5a17.814,17.814,0,0,1-12.236,3.985,46.721,46.721,0,0,1-5.227-.774c-.534-.081-.721-.355-.7-.9.038-1.226.012-2.453.012-3.81a26.812,26.812,0,0,0,19.6-2.711,3.8,3.8,0,0,1-1.445,4.212m-1-6.161c-.3.154-.62.279-1.117.5.307-2.269.579-4.329.866-6.389.358-2.564.709-5.128,1.116-7.684a1.23,1.23,0,0,1,.656-.827c6.85-2.378,8.141-3.087,14.269-8-.2,1.509-.362,2.857-.563,4.2a17.1,17.1,0,0,1-.542,2.88,14.276,14.276,0,0,1-1.7,4.055,37.279,37.279,0,0,1-12.982,11.263M345.1,207.423a6.864,6.864,0,0,1-6.781.006,1.805,1.805,0,0,1-.886-1.656c.022-4.84,0-9.679.034-14.519a1.651,1.651,0,0,1,.537-1.07c.67-.6,1.427-1.1,2.311-1.768-.332,3.484,1.558,5,4.477,5.688a1.523,1.523,0,0,1,1.2,1.7c-.011,3.322-.017,6.643.005,9.964a1.837,1.837,0,0,1-.9,1.659m6.605-2.751-2.829-.882V201.1c.838.266,1.624.485,2.382.777a.819.819,0,0,1,.428.581c.054.688.02,1.382.02,2.218" transform="translate(-151.547 -62.641)" fill="#c10058"/>
              </g>
            </g>
          </g>
        </g>
        <g id="Groupe_1110" data-name="Groupe 1110" transform="translate(-825.181 -481.303)">
          <path id="Tracé_629" data-name="Tracé 629" d="M50.531,0A50.531,50.531,0,1,1,0,50.531,50.531,50.531,0,0,1,50.531,0" transform="translate(1137.383 630.242)" fill="#1f3149"/>
          <text id="_20" data-name="20" transform="translate(1158.957 650)" fill="#fff" font-size="50" font-family="Montserrat-Bold, Montserrat" font-weight="700"><tspan x="0" y="48">20</tspan></text>
        </g>
      </g>
    </g>
  </g>
</svg>
