<svg xmlns="http://www.w3.org/2000/svg" xmlns:xlink="http://www.w3.org/1999/xlink" width="259.976" height="223.403" viewBox="0 0 259.976 223.403">
  <defs>
    <clipPath id="clip-path">
      <rect id="Rectangle_753" data-name="Rectangle 753" width="223.403" height="223.403" fill="none"/>
    </clipPath>
    <clipPath id="clip-path-3">
      <rect id="Rectangle_749" data-name="Rectangle 749" width="223.403" height="223.403" fill="#c10058"/>
    </clipPath>
    <clipPath id="clip-path-5">
      <rect id="Rectangle_751" data-name="Rectangle 751" width="175.007" height="175.007" fill="#c10058"/>
    </clipPath>
    <clipPath id="clip-path-6">
      <rect id="Rectangle_750" data-name="Rectangle 750" width="175.006" height="175.006" fill="#c10058"/>
    </clipPath>
    <clipPath id="clip-path-7">
      <rect id="Rectangle_641" data-name="Rectangle 641" width="101.062" height="101.062" fill="none"/>
    </clipPath>
  </defs>
  <g id="Groupe_1196" data-name="Groupe 1196" transform="translate(-585.299 -134.367)">
    <g id="Groupe_1190" data-name="Groupe 1190">
      <g id="Groupe_1189" data-name="Groupe 1189">
        <g id="Groupe_1158" data-name="Groupe 1158" transform="translate(585.299 134.367)">
          <g id="Groupe_1157" data-name="Groupe 1157" clip-path="url(#clip-path)">
            <g id="Groupe_1156" data-name="Groupe 1156">
              <g id="Groupe_1155" data-name="Groupe 1155" clip-path="url(#clip-path)">
                <g id="Groupe_1149" data-name="Groupe 1149" opacity="0.15">
                  <g id="Groupe_1148" data-name="Groupe 1148">
                    <g id="Groupe_1147" data-name="Groupe 1147" clip-path="url(#clip-path-3)">
                      <g id="Groupe_1146" data-name="Groupe 1146">
                        <g id="Groupe_1145" data-name="Groupe 1145" clip-path="url(#clip-path-3)">
                          <path id="Tracé_1307" data-name="Tracé 1307" d="M111.7,0A111.7,111.7,0,1,1,0,111.7,111.7,111.7,0,0,1,111.7,0" transform="translate(0.001)" fill="#c10058"/>
                        </g>
                      </g>
                    </g>
                  </g>
                </g>
                <g id="Groupe_1154" data-name="Groupe 1154" transform="translate(26.063 26.063)" opacity="0.15">
                  <g id="Groupe_1153" data-name="Groupe 1153">
                    <g id="Groupe_1152" data-name="Groupe 1152" clip-path="url(#clip-path-5)">
                      <g id="Groupe_1151" data-name="Groupe 1151" transform="translate(0)">
                        <g id="Groupe_1150" data-name="Groupe 1150" clip-path="url(#clip-path-6)">
                          <path id="Tracé_1308" data-name="Tracé 1308" d="M142.2,54.7a87.5,87.5,0,1,1-87.5,87.5,87.5,87.5,0,0,1,87.5-87.5" transform="translate(-54.698 -54.697)" fill="#c10058"/>
                        </g>
                      </g>
                    </g>
                  </g>
                </g>
                <path id="Tracé_1309" data-name="Tracé 1309" d="M62.548,171.089c.276-1.18.531-2.365.83-3.539a27.4,27.4,0,0,1,45.141-13.569c.392.354.78.712,1.226,1.12-.426-3.082-6.2-8.245-16.7-15.081a29.291,29.291,0,0,1-5.155,2.221,9.205,9.205,0,0,1-10.667-11.88,2.67,2.67,0,0,0-.24-2.641,4.2,4.2,0,0,1,.039-4.419,14.058,14.058,0,0,1,15.959-7.448c13.846,3.432,27.667,6.963,41.5,10.442,3.151.792,5.228-.121,6.834-2.95.553-.973,1.069-1.968,1.626-2.94A14.749,14.749,0,0,1,160,113.231c2.058.535,4.107,1.1,6.239,1.676,1.54-2.874,2.347-5.6.6-8.763a9.12,9.12,0,0,1,3.2-12.088,4.416,4.416,0,0,1,6.515,1.378,37.765,37.765,0,0,1,2.09,3.408,1.878,1.878,0,0,0,2.256,1.11,9.74,9.74,0,0,1,11.2,10.729,9.529,9.529,0,0,1-5.734,8.085c-.45.223-.914.416-1.693.768a6.876,6.876,0,0,0,1.127.657c1.48.436,2.984.8,4.457,1.256a12.071,12.071,0,0,1,8.471,10.926c.153,2.968-1.776,4.953-4.956,4.993-3.462.044-6.924.01-10.707.01l5.279,10.818c3.852-.513,7.409-1.377,10.969-1.39,12.969-.048,24.035,9.45,26.568,22.477a27.571,27.571,0,0,1-16.507,30.279,2.169,2.169,0,0,0-1.653,2.4c.019,5.331.348,10.681-.881,15.952a36.852,36.852,0,0,1-11.084,19.068c-1.014.941-2.245,1.376-3.276.4a4.142,4.142,0,0,1-.862-2.645c-.022-.48.649-1.056,1.1-1.485a31.44,31.44,0,0,0,9.722-17.966,30.648,30.648,0,0,0,.485-4.932c.053-7.691.03-15.383.027-23.075,0-.365-.055-.73-.094-1.227-10.353-.125-20.368-1.152-27.549-10.43a20.944,20.944,0,0,1-12.5,8.57c-4.894,1.1-9.921,1.6-15.144,2.409.174-.32.126-.273.127-.226.143,9.652-.187,19.344.588,28.945.623,7.719,4.857,14.046,10.834,18.987,4.108,3.4,8.371,6.608,12.6,9.856a5.285,5.285,0,0,0,7.047,0c1.662-1.249,3.278-2.561,4.939-3.813,1.387-1.045,2.8-.958,3.678.171s.6,2.545-.742,3.614c-1.753,1.394-3.507,2.79-5.314,4.112a9.985,9.985,0,0,1-12.2-.03c-4.46-3.385-8.959-6.736-13.225-10.356-8.63-7.322-12.912-16.8-13.065-28.1-.108-7.9-.033-15.81-.017-23.715.007-3.279,1.52-4.8,4.8-4.831,4.911-.042,9.8-.164,14.527-1.776a17.267,17.267,0,0,0,8.554-5.893,3.628,3.628,0,0,0,.767-1.683,27.211,27.211,0,0,1,11.994-20.411c.212-.149.405-.324.734-.591l-6.536-13.386a24.514,24.514,0,0,0-2,3.081q-5.6,12.647-11.106,25.34c-2.721,6.275-7.487,9.331-14.278,9.323-7.41-.009-14.821.071-22.229-.052a15.977,15.977,0,0,1-5.738-1.115c-1.788-.741-3.1.076-4.539.6-.321.116-.489.97-.529,1.5a27.394,27.394,0,0,1-34.066,24.718c-1.945-.481-2.807-1.571-2.463-3.084.335-1.472,1.642-2.053,3.606-1.6,8.485,1.941,15.832-.168,21.941-6.355a21.963,21.963,0,0,0,6.04-12.294,8.235,8.235,0,0,0,.006-1.11c-1.565.508-3.055.89-4.444,1.5-.445.2-.732.965-.908,1.53a17.841,17.841,0,1,1-7.635-20.314,3.58,3.58,0,0,0,3.777.408c.918-.4,1.889-.674,3.021-1.068a21.84,21.84,0,0,0-10.732-6.248,22.659,22.659,0,0,0-21.418,38.082c.226.227.471.436.688.67,1.125,1.217,1.178,2.53.152,3.548a2.4,2.4,0,0,1-3.443-.079,23.385,23.385,0,0,1-6.253-8.609c-1.112-2.795-1.782-5.766-2.647-8.66Zm53.893-13.461c.816,2.2,1.536,4.194,2.29,6.172a9.477,9.477,0,0,0,9.542,6.606q11.191.014,22.381,0a9.576,9.576,0,0,0,9.5-6.232q5.6-12.907,11.256-25.787a8.9,8.9,0,0,1,8.871-5.823c4,.033,7.993.01,11.99,0,.5,0,1-.044,1.5-.067a6.778,6.778,0,0,0-5.057-6.479q-15.305-4.237-30.658-8.3a9.437,9.437,0,0,0-10.3,4.211c.644.359,1.291.708,1.927,1.075a8.979,8.979,0,0,1,.766,15.082,2.368,2.368,0,0,1-3.368-3.273c.393-.564.943-1.016,1.378-1.554a3.822,3.822,0,0,0-.037-5.121,20.532,20.532,0,0,0-3.02-2.1c-3.519,5.31-8.166,6.056-13.83,4.549-13.058-3.475-26.186-6.69-39.29-9.99a9.172,9.172,0,0,0-10.915,4.934c.436.33.889.684,1.354,1.023q11.641,8.46,23.288,16.913a29.292,29.292,0,0,1,7.829,8.344,2.421,2.421,0,0,0,1.719.964c3.194.094,6.394.02,9.591.051a10.016,10.016,0,0,0,7.707-3.247q3.246-3.429,6.536-6.814c1.358-1.4,2.825-1.588,3.887-.521s.941,2.4-.386,3.8c-2.016,2.132-4.106,4.194-6.082,6.361a15.244,15.244,0,0,1-12.21,5.229c-2.644-.068-5.29-.012-8.164-.012M207.53,183.87a12.924,12.924,0,0,0,1.8-17.451c-3.4-4.535-10.591-6.776-14.211-4.4.227.475.453.955.686,1.433,1.68,3.446,3.378,6.884,5.036,10.342.748,1.56.358,2.968-.9,3.568s-2.572.04-3.4-1.5c-.253-.468-.472-.954-.706-1.433l-5.113-10.419a13.224,13.224,0,0,0-4.529,13.216,2.388,2.388,0,0,0,1.757,1.983c4.636,1.695,9.455,2.01,14.311,1.968,2.274-.02,4.246.352,5.273,2.686m.308,11c6.293-2,12.288-9.552,13.339-16.879,1.345-9.374-1.825-16.987-9.526-22.421-6.384-4.506-13.418-5.181-20.92-2.477l2.11,4.267c.568-.156.974-.273,1.382-.38A17.826,17.826,0,0,1,214.6,165.8a17.308,17.308,0,0,1-4.092,21.761,6.669,6.669,0,0,0-2.753,6.727c.018.157.044.314.082.58m-95.15-33.455-5.849,1.958c-5.746,1.921-11.5,3.826-17.236,5.769-2.442.827-3.7,2.636-3.518,4.888.259,3.161,3.179,4.977,6.437,3.9,7.772-2.561,15.527-5.177,23.287-7.776a4.042,4.042,0,0,0,.586-.294c-.718-1.43-1.439-2.73-2.033-4.087-.614-1.4-1.1-2.859-1.674-4.363M101.6,179.99c-2.73.916-5.181,1.768-7.65,2.562A9.455,9.455,0,0,1,81.726,176.6c-1.646-5.032,1-10.139,6.212-11.965,2.247-.787,4.508-1.533,6.824-2.319-4.812-2.983-12.741-.31-16.027,5.319A13.006,13.006,0,1,0,101.6,179.99m78.532-61.473c.187-4.3.58-8.475-2.414-12.2a78.463,78.463,0,0,1-5.079-8.07c-2.2,1.535-2.686,3.635-1.381,6.091a10.956,10.956,0,0,1,1.076,8.188c-.321,1.221-.8,2.4-1.247,3.689,2.779.766,5.489,1.518,8.2,2.254a4.364,4.364,0,0,0,.842.051m-3.622,52.253,4.094,3.369c.76-2.56,1.215-5.468,2.481-7.961s3.344-4.573,5.241-7.062l-1.873-3.811a22.774,22.774,0,0,0-9.942,15.465m8.418-56.872a4.87,4.87,0,0,0,2.221-5.7,4.692,4.692,0,0,0-4.792-3.366,12.1,12.1,0,0,1,2.571,9.069m-103,18.029a4.053,4.053,0,0,0,1.431,4.844,3.974,3.974,0,0,0,5.156-.066l-6.587-4.778" transform="translate(-32.744 -48.78)" fill="#c10058"/>
                <path id="Tracé_1310" data-name="Tracé 1310" d="M249.561,301.829c0-2.991-.012-5.982,0-8.972.015-2.912.9-3.92,3.765-4.329,6.109-.872,11.986-2.426,17.326-5.678a4.773,4.773,0,0,1,5.176,0c5.443,3.288,11.42,4.866,17.647,5.7,2.264.3,3.448,1.475,3.448,3.671,0,6.353.154,12.721-.228,19.055-.464,7.67-4,13.992-9.85,18.914-3.629,3.054-7.447,5.884-11.209,8.777a3.41,3.41,0,0,1-4.8-.015c-3.759-2.9-7.573-5.732-11.207-8.78a27.051,27.051,0,0,1-9.984-20.016c-.147-2.769-.023-5.553-.023-8.33h-.062m23.706,33.018c4.012-3.228,8.113-6.217,11.845-9.613a20.42,20.42,0,0,0,6.807-14.225c.31-5.425.151-10.876.263-16.314.023-1.13-.288-1.542-1.455-1.721a46.358,46.358,0,0,1-16.686-5.6,1.833,1.833,0,0,0-1.559-.021,47.017,47.017,0,0,1-17,5.673c-.9.136-1.146.5-1.14,1.333.043,5.228-.081,10.462.111,15.684a21.309,21.309,0,0,0,7.242,15.518c3.638,3.264,7.621,6.141,11.569,9.283" transform="translate(-130.645 -147.676)" fill="#c10058"/>
                <path id="Tracé_1311" data-name="Tracé 1311" d="M284.9,328.759c1.232-1.548,2.391-2.99,3.536-4.444,2.706-3.434,5.348-6.922,8.154-10.271a3.674,3.674,0,0,1,2.666-1.223c1.834.148,2.429,2.337,1.178,3.98-1.841,2.418-3.746,4.786-5.625,7.175-2.5,3.185-5,6.377-7.518,9.553-1.723,2.173-3.14,2.146-4.848-.075q-3.509-4.565-7-9.147c-.759-.993-1.036-2.169-.1-3.042a3.9,3.9,0,0,1,2.525-.817c.531.007,1.149.7,1.561,1.219,1.817,2.289,3.574,4.625,5.465,7.092" transform="translate(-143.838 -163.762)" fill="#c10058"/>
              </g>
            </g>
          </g>
        </g>
        <g id="Groupe_1037" data-name="Groupe 1037" transform="translate(744.214 147.607)">
          <g id="Groupe_1036" data-name="Groupe 1036" transform="translate(-0.001 0)" clip-path="url(#clip-path-7)">
            <path id="Tracé_629" data-name="Tracé 629" d="M50.531,0A50.531,50.531,0,1,1,0,50.531,50.531,50.531,0,0,1,50.531,0" transform="translate(0 0)" fill="#1f3149"/>
            <path id="Tracé_630" data-name="Tracé 630" d="M39.954,63.677A5.21,5.21,0,0,1,36.781,62.6l-.06-.06-11.855-9.1a5.293,5.293,0,1,1,6.465-8.382l7.723,5.927,18.2-23.707a5.263,5.263,0,0,1,7.378-.992c.016.011.031.022.046.035l-.124.179.124-.179a5.263,5.263,0,0,1,.992,7.378c-.011.016-.024.031-.035.046l-21.372,27.9a5.9,5.9,0,0,1-4.31,2.035" transform="translate(5.548 6.132)" fill="#fff"/>
          </g>
        </g>
      </g>
    </g>
  </g>
</svg>
