<svg xmlns="http://www.w3.org/2000/svg" xmlns:xlink="http://www.w3.org/1999/xlink" width="303.489" height="223.403" viewBox="0 0 303.489 223.403">
  <defs>
    <clipPath id="clip-path">
      <rect id="Rectangle_759" data-name="Rectangle 759" width="223.403" height="223.403" fill="none"/>
    </clipPath>
    <clipPath id="clip-path-2">
      <rect id="Rectangle_758" data-name="Rectangle 758" width="223.403" height="223.403" fill="#c10058"/>
    </clipPath>
    <clipPath id="clip-path-5">
      <rect id="Rectangle_757" data-name="Rectangle 757" width="175.007" height="175.007" fill="#c10058"/>
    </clipPath>
    <clipPath id="clip-path-6">
      <rect id="Rectangle_756" data-name="Rectangle 756" width="175.006" height="175.006" fill="#c10058"/>
    </clipPath>
  </defs>
  <g id="Groupe_1198" data-name="Groupe 1198" transform="translate(-1074.299 -134.367)">
    <g id="Groupe_1192" data-name="Groupe 1192">
      <g id="Groupe_1191" data-name="Groupe 1191">
        <rect id="Rectangle_643" data-name="Rectangle 643" width="98.462" height="98.462" transform="translate(1275.025 147.607)" fill="none"/>
        <g id="Groupe_1172" data-name="Groupe 1172" transform="translate(1074.299 134.367)">
          <g id="Groupe_1171" data-name="Groupe 1171" clip-path="url(#clip-path)">
            <g id="Groupe_1170" data-name="Groupe 1170">
              <g id="Groupe_1169" data-name="Groupe 1169" clip-path="url(#clip-path-2)">
                <g id="Groupe_1163" data-name="Groupe 1163" opacity="0.15">
                  <g id="Groupe_1162" data-name="Groupe 1162">
                    <g id="Groupe_1161" data-name="Groupe 1161" clip-path="url(#clip-path-2)">
                      <g id="Groupe_1160" data-name="Groupe 1160">
                        <g id="Groupe_1159" data-name="Groupe 1159" clip-path="url(#clip-path-2)">
                          <path id="Tracé_1312" data-name="Tracé 1312" d="M111.7,0A111.7,111.7,0,1,1,0,111.7,111.7,111.7,0,0,1,111.7,0" transform="translate(0.001)" fill="#c10058"/>
                        </g>
                      </g>
                    </g>
                  </g>
                </g>
                <g id="Groupe_1168" data-name="Groupe 1168" transform="translate(26.063 26.063)" opacity="0.15">
                  <g id="Groupe_1167" data-name="Groupe 1167">
                    <g id="Groupe_1166" data-name="Groupe 1166" clip-path="url(#clip-path-5)">
                      <g id="Groupe_1165" data-name="Groupe 1165" transform="translate(0)">
                        <g id="Groupe_1164" data-name="Groupe 1164" clip-path="url(#clip-path-6)">
                          <path id="Tracé_1313" data-name="Tracé 1313" d="M142.2,54.7a87.5,87.5,0,1,1-87.5,87.5,87.5,87.5,0,0,1,87.5-87.5" transform="translate(-54.698 -54.697)" fill="#c10058"/>
                        </g>
                      </g>
                    </g>
                  </g>
                </g>
                <path id="Tracé_1314" data-name="Tracé 1314" d="M211.487,189.3c-.463,2.02-.826,4.07-1.4,6.057-4.259,14.658-18.439,24.712-33.415,23.74-15.851-1.03-28.787-12.457-31.025-27.822-.664-4.56-.431-9.262-.484-13.9A27.748,27.748,0,0,0,124.5,150.593a32.774,32.774,0,0,0-8.1-.942c-17.95-.08-35.9-.03-53.85-.045A33.216,33.216,0,0,1,29.4,122.265c-3.573-18.092,9.642-36.457,27.905-38.771,1.353-.172,2.714-.294,4.371-.472V81.227q0-11.256,0-22.511c0-3.039,1.439-4.126,4.3-3.237q7.734,2.4,15.454,4.85c2.225.706,2.7,1.391,2.7,3.768q.012,3.037,0,6.074c-.007,2.914-.813,3.741-3.668,3.745-4.391.007-8.781,0-13.3,0V83.14H69c5.409,0,10.818-.008,16.227,0,2.144,0,3.3.93,3.343,2.6.04,1.735-1.189,2.757-3.391,2.76-7.786.011-15.572-.043-23.359.018a27.848,27.848,0,0,0,.232,55.695c18.247.044,36.494-.035,54.741.025,15.059.049,27.651,8.989,32,22.964a53.214,53.214,0,0,1,1.666,11.05c.407,4.55-.027,9.231.825,13.678,2.488,13,14.753,22.371,27.916,21.814,13.719-.581,25.144-10.7,26.54-24.084.634-6.071.282-12.246.368-18.375.019-1.369.044-2.741-.013-4.108-.064-1.546.206-2.909,1.843-3.477,1.659-.576,2.655.471,3.546,1.652ZM67.144,61.486V68.4H79.085c-.331-1.292-.325-3.084-.925-3.317-3.57-1.389-7.28-2.419-11.016-3.592" transform="translate(-15.087 -28.887)" fill="#c10058"/>
                <path id="Tracé_1315" data-name="Tracé 1315" d="M283.158,162.919a2.129,2.129,0,0,0-.372.339,2.567,2.567,0,0,1-3.2,1.224,2.739,2.739,0,0,1-1.814-2.95q0-13.22-.048-26.439a44.766,44.766,0,0,0-2.742-16.452c-5.448-13.823-15.847-21.213-30.309-23.286-1.438-.206-2.651-.355-3.709,1.142a2.337,2.337,0,0,1-3.732-.183,3.471,3.471,0,0,0-3.22-1.329q-32.092.044-64.185.02a9.786,9.786,0,0,1-1.779-.044,2.521,2.521,0,0,1-2.322-2.7,2.47,2.47,0,0,1,2.408-2.6,14.586,14.586,0,0,1,1.781-.033q30.042,0,60.085,0h2.067c-1.188-2.375-2.458-4.516-3.364-6.8a10.978,10.978,0,0,1,7.108-14.666,10.719,10.719,0,0,1,11.7,3.142c3.08,3.338,3.969,7.285,2.144,11.563-1.02,2.392-2.317,4.667-3.566,7.146,1.506.334,3.045.648,4.571,1.019a41.211,41.211,0,0,1,31.82,35.509c.213,1.644.45,3.285.676,4.928ZM238.84,90.1l.674.046c1.714-3.02,3.564-5.972,5.1-9.08a5.38,5.38,0,0,0-1.748-6.82,5.961,5.961,0,0,0-7.27-.047,5.394,5.394,0,0,0-1.862,6.8c1.533,3.119,3.39,6.078,5.107,9.105" transform="translate(-86.758 -35.379)" fill="#c10058"/>
                <path id="Tracé_1316" data-name="Tracé 1316" d="M126.244,134.894q26.121,0,52.243.006a35.1,35.1,0,0,1,18.7,4.977c9.393,5.761,13.895,14.514,15,25.231.249,2.422.266,4.875.273,7.314q.069,26.8.086,53.6c.015,12.745-6.6,21.255-18.9,24.426a4.058,4.058,0,0,0-1.788,1.31c-1.7,1.924-3.213,1.912-4.92.044a4.692,4.692,0,0,0-2.288-1.428,23.445,23.445,0,0,1-18.4-21.982c-.161-4.815.042-9.665-.45-14.444-1.656-16.078-15.8-30.392-31.882-32.182-5.115-.569-10.319-.36-15.483-.406a2.718,2.718,0,0,0-1.651,1.049c-1.811,2.094-3.335,2.071-5.168.05a3.576,3.576,0,0,0-2.34-1.1c-12.005-.069-24.011,0-36.017-.064a23.133,23.133,0,0,1-22.708-18.1c-3.3-14.255,7.59-28.213,22.205-28.278,17.83-.08,35.661-.019,53.491-.02m-4.683,41.033c2.049,0,3.881-.089,5.7.02a84.379,84.379,0,0,1,9.388.795c17.83,3.09,32.729,18.971,34.511,36.89.464,4.664.267,9.393.426,14.09.228,6.744,3.295,11.818,9.392,15.664-.836-1.833-1.531-3.188-2.083-4.6a10.865,10.865,0,0,1,3.3-12.694,11.33,11.33,0,0,1,13.46-.671,10.958,10.958,0,0,1,4.225,13.316c-.557,1.436-1.26,2.815-2.088,4.646,6.257-3.97,9.369-9.214,9.374-16.144q.019-27.6-.085-55.208a62.747,62.747,0,0,0-.245-6.423c-1.1-10.4-5.8-18.386-15.615-22.783a31.845,31.845,0,0,0-13.193-2.574q-52.158.006-104.316.043a20.567,20.567,0,0,0-6.287.981c-8.421,2.767-13.233,11.043-11.8,19.976A17.8,17.8,0,0,0,73.317,175.9c10.758.086,21.517.023,32.275.015a9.951,9.951,0,0,0,1.286-.188,18.114,18.114,0,0,1-1.51-2.635c-.922-2.545-2.375-5.118-2.436-7.707-.112-4.808,2.51-8.381,7.023-10.2a10.631,10.631,0,0,1,12.168,2.433c3.394,3.347,4.389,7.431,2.551,11.949-.846,2.077-1.968,4.042-3.112,6.356m-7.786.867.833-.025c1.725-3.1,3.589-6.125,5.128-9.311a5.375,5.375,0,0,0-2.008-6.6,6.009,6.009,0,0,0-7.132.035,5.325,5.325,0,0,0-2,6.452c1.548,3.235,3.434,6.307,5.175,9.449m75.175,69.148.851.009c1.7-3.04,3.542-6.014,5.069-9.141a5.362,5.362,0,0,0-1.839-6.658,5.934,5.934,0,0,0-7.284-.017,5.369,5.369,0,0,0-1.866,6.655c1.524,3.132,3.365,6.109,5.07,9.152" transform="translate(-26.151 -70.607)" fill="#c10058"/>
              </g>
            </g>
          </g>
        </g>
        <path id="Tracé_629" data-name="Tracé 629" d="M50.531,0A50.531,50.531,0,1,1,0,50.531,50.531,50.531,0,0,1,50.531,0" transform="translate(1271.725 148.307)" fill="#1f3149"/>
        <text id="Privé" transform="translate(1282.787 180.338)" fill="#fff" font-size="30" font-family="Montserrat-Bold, Montserrat" font-weight="700"><tspan x="0" y="29">Privé</tspan></text>
      </g>
    </g>
  </g>
</svg>
