<svg xmlns="http://www.w3.org/2000/svg" xmlns:xlink="http://www.w3.org/1999/xlink" width="278.714" height="218.452" viewBox="0 0 278.714 218.452">
  <defs>
    <clipPath id="clip-path">
      <rect id="Rectangle_765" data-name="Rectangle 765" width="218.452" height="218.452" fill="#c10058"/>
    </clipPath>
    <clipPath id="clip-path-5">
      <rect id="Rectangle_763" data-name="Rectangle 763" width="171.129" height="171.129" fill="#c10058"/>
    </clipPath>
  </defs>
  <g id="Groupe_1199" data-name="Groupe 1199" transform="translate(-1551.774 -134.367)">
    <g id="Groupe_1195" data-name="Groupe 1195">
      <g id="Groupe_1194" data-name="Groupe 1194">
        <g id="Groupe_1193" data-name="Groupe 1193">
          <path id="Tracé_632" data-name="Tracé 632" d="M26.378,45.51H19.656v6.563H13.531V45.51H6.769V39.7h6.762V33.14h6.126V39.7h6.722Z" transform="translate(1690.924 151.688)" fill="#fff"/>
          <rect id="Rectangle_643" data-name="Rectangle 643" width="98.462" height="98.462" transform="translate(1693.025 144.542)" fill="none"/>
          <g id="Groupe_1186" data-name="Groupe 1186" transform="translate(1551.774 134.367)">
            <g id="Groupe_1185" data-name="Groupe 1185" clip-path="url(#clip-path)">
              <g id="Groupe_1184" data-name="Groupe 1184">
                <g id="Groupe_1183" data-name="Groupe 1183" clip-path="url(#clip-path)">
                  <g id="Groupe_1177" data-name="Groupe 1177" opacity="0.15">
                    <g id="Groupe_1176" data-name="Groupe 1176">
                      <g id="Groupe_1175" data-name="Groupe 1175" clip-path="url(#clip-path)">
                        <g id="Groupe_1174" data-name="Groupe 1174">
                          <g id="Groupe_1173" data-name="Groupe 1173" clip-path="url(#clip-path)">
                            <path id="Tracé_1317" data-name="Tracé 1317" d="M109.223,0A109.223,109.223,0,1,1,0,109.223,109.223,109.223,0,0,1,109.223,0" transform="translate(0.001)" fill="#c10058"/>
                          </g>
                        </g>
                      </g>
                    </g>
                  </g>
                  <g id="Groupe_1182" data-name="Groupe 1182" transform="translate(25.485 25.485)" opacity="0.15">
                    <g id="Groupe_1181" data-name="Groupe 1181">
                      <g id="Groupe_1180" data-name="Groupe 1180" clip-path="url(#clip-path-5)">
                        <g id="Groupe_1179" data-name="Groupe 1179" transform="translate(0)">
                          <g id="Groupe_1178" data-name="Groupe 1178" clip-path="url(#clip-path-5)">
                            <path id="Tracé_1318" data-name="Tracé 1318" d="M140.262,54.7A85.564,85.564,0,1,1,54.7,140.261,85.564,85.564,0,0,1,140.262,54.7" transform="translate(-54.698 -54.697)" fill="#c10058"/>
                          </g>
                        </g>
                      </g>
                    </g>
                  </g>
                  <path id="Tracé_1319" data-name="Tracé 1319" d="M175.525,286.582c-2.893-1.313-5.762-2.684-8.69-3.911-1.265-.531-2.675-.7-3.982-1.15a34.759,34.759,0,0,1-6.276-2.385,7.036,7.036,0,0,0-7.173-.4c-1.016.5-2.03,1.007-3.053,1.495a10.2,10.2,0,0,1-10.965-.873,39.174,39.174,0,0,1-4.48-4.02c-2.354-2.309-4.616-4.712-6.964-7.027a4.871,4.871,0,0,1-1.092-6.064,20.564,20.564,0,0,0,2.7-10.5,8.063,8.063,0,0,1,3.353-6.832c.786-.6.738-1.191.672-2.11-.236-3.279-.319-6.576-.289-9.864a3.046,3.046,0,0,1,2.4-2.906,3.288,3.288,0,0,1,3.608,1.128,4.891,4.891,0,0,0,1.607,1.315c-.349-.766-.675-1.545-1.053-2.3-1.206-2.393-2.5-4.746-3.629-7.174-.8-1.711-.386-3.023.887-3.6,1.378-.621,2.555.058,3.376,1.765,1.094,2.276,2.325,4.485,3.426,6.757a30.943,30.943,0,0,1,1.634,4,4.385,4.385,0,0,1-1.46,5.146c-1.472,1.176-3.222,1.172-5.2.033-.341-.2-.681-.4-1.421-.826a40.71,40.71,0,0,0,.686,5.649c.7,2.628.137,4.7-2.017,6.3a4.76,4.76,0,0,0-2,4.287,20.568,20.568,0,0,1-2.76,10.968c-.517.924-.305,1.345.415,2.036,2.191,2.106,4.23,4.37,6.378,6.522a37.1,37.1,0,0,0,3.769,3.421,6.022,6.022,0,0,0,6.7.469,51.575,51.575,0,0,1,4.8-2.12,9.3,9.3,0,0,1,8.463.828,17.306,17.306,0,0,0,6.721,2.507,26.65,26.65,0,0,1,5.922,2.141c1.71.709,3.324,1.658,5.053,2.309,2.009.756,3.486.069,4.112-2a12.382,12.382,0,0,0,.379-3.961c-.106-3.035.829-4.423,3.416-6a30.944,30.944,0,0,0,5.228-4.283c2.96-2.855,6.264-3.835,10.185-2.382.579.214,1.173.389,1.754.6a5.773,5.773,0,0,0,4.644-.159,7.979,7.979,0,0,1,9.205,1.241c2.063,1.724,4.2,3.355,7,3.714A10.858,10.858,0,0,0,230.2,265.9a92.7,92.7,0,0,0,7.7-8.028,15.426,15.426,0,0,0,1.591-2.718c-1.231-.315-2.239-.5-3.2-.832a9.053,9.053,0,0,1-5.751-9.06,8.711,8.711,0,0,0-1.052-5.783c-1.4-2.385-.431-4.909,1.078-7.108.432-.63.92-1.222,1.467-1.942-2.533-2.247-2.752-5.043-2.364-8.21.239-1.948-.372-4-.616-6.132a48.87,48.87,0,0,1-4.322,2.672,5.142,5.142,0,0,1-6.052-.692,5.071,5.071,0,0,1-1.4-6.062,32.018,32.018,0,0,1,2.772-5.15c.964-1.521,2.127-2.918,3.228-4.349a11.644,11.644,0,0,0,2.545-5.526,15.4,15.4,0,0,1,1.919-4.838,5.781,5.781,0,0,1,4.036-2.877c3.612-.781,4.062-1.417,4.394-5.218a3.269,3.269,0,0,1,1.305-2.191,2.624,2.624,0,0,1,2.241.2,2.451,2.451,0,0,1,.973,1.792c.139,4.363-1.275,8.487-6.74,9.661-1.924.413-3.121,1.441-3.272,3.165-.432,4.923-3.5,8.36-6.247,12.024a31.621,31.621,0,0,0-2.342,3.637,9.609,9.609,0,0,0-.612,2.113l.445.44a17.085,17.085,0,0,0,2.652-1.45c4.613-3.673,7.707-2.757,9.065,3.027.576,2.452.317,5.094.569,7.636a5.07,5.07,0,0,0,.907,2.745c2.193,2.469,2.3,4.578.122,7.124a11.947,11.947,0,0,0-1.283,1.733,2.21,2.21,0,0,0,.283,2.848,4.937,4.937,0,0,1,1.164,4.74,11.987,11.987,0,0,0-.208,2.922c.1,2.252,1.056,3.348,3.263,3.889.65.159,1.316.255,1.958.438,3.009.856,4.541,3.385,3.193,6.2a38.562,38.562,0,0,1-4.932,7.4,41.124,41.124,0,0,1-5.406,5.305c-3.805,3.241-11.831,5.811-18.725,1.02-1.1-.765-2.182-1.564-3.217-2.413a3.283,3.283,0,0,0-3.863-.53,10.034,10.034,0,0,1-8.959.16c-2.913-1.285-5.134-.6-7.317,1.687-1.681,1.757-3.87,3.019-5.766,4.583a2.511,2.511,0,0,0-.655,1.512,44.777,44.777,0,0,1-.642,5.489c-.752,2.825-2.859,4.544-5.512,5.615Z" transform="translate(-65.277 -97.032)" fill="#c10058"/>
                  <path id="Tracé_1320" data-name="Tracé 1320" d="M139.379,66.148a7.564,7.564,0,0,1,3.437,3.555A6.16,6.16,0,0,0,148,72.93c4.8.481,7.686,3.088,9.11,7.581a15.009,15.009,0,0,0,1.241,2.828,4.707,4.707,0,0,0,4.541,2.646c.875-.037,1.754-.024,2.63,0a4.028,4.028,0,0,1,3.913,2.544c.884,2.233,2.613,3.051,4.774,3.359,2.753.393,5.517.726,8.255,1.206a12.04,12.04,0,0,1,7.377,4.45,6.1,6.1,0,0,0,3.185,1.985,90.362,90.362,0,0,0,10.2,1.579c4.076.381,5.9,3.325,4.125,7.047-.554,1.164-1.093,2.335-1.628,3.508-.774,1.7-1.9,2.317-3.235,1.763s-1.729-1.863-1.039-3.521c.549-1.319,1.144-2.619,1.705-3.9-3.258-.484-6.43-.835-9.55-1.452a12.366,12.366,0,0,1-7.948-4.639c-1.656-2.215-4.324-2.409-6.833-2.752-1.837-.252-3.69-.4-5.519-.7-3.618-.587-6.52-2.227-8.006-5.84-.813,0-1.584-.015-2.355,0-4.029.094-6.882-1.818-8.757-5.268a25.087,25.087,0,0,1-1.708-3.972c-.779-2.319-2.316-3.386-4.722-3.823a16.42,16.42,0,0,1-5.7-2.153c-1.412-.888-2.339-2.531-3.55-3.773a2.536,2.536,0,0,0-1.416-.671,4.032,4.032,0,0,0-1.5.308c-2.667.773-3.378,1.763-3.06,4.5.184,1.586.52,3.154.815,4.725a6.793,6.793,0,0,1-1.928,6.246,16.185,16.185,0,0,1-7.074,3.934,34.167,34.167,0,0,0-6.254,2.564,7.509,7.509,0,0,0-3.045,3.145,8.317,8.317,0,0,1-8.046,5.254,29.286,29.286,0,0,1-7.852-1.277c-2.28-.641-3.356-3.1-3-5.827.112-.864.348-1.711.59-2.868l-4.806,1.125c1.768,4.725,3.6,9.389,5.256,14.114a5.583,5.583,0,0,1-5.749,7.64c-2.036-.139-4.033-.785-6.065-1.092a5.887,5.887,0,0,0-2.555.1,5.125,5.125,0,0,1-5.746-1.556c-.867-.95-1.589-2.031-2.43-3.007a2.2,2.2,0,0,0-3.679-.07c-1.792,1.911-3.994,1.96-6.291,1.38-1.141-.288-2.2-.894-3.34-1.187a13.16,13.16,0,0,0-3.778-.351c1.537,2.416,1.507,4.835,1.144,7.341a3.486,3.486,0,0,0,1.688,3.285c2.485,1.9,5.372,2.441,8.42,2.6a29.327,29.327,0,0,1,6.4.8c3.28.923,5.936,2.774,7.2,6.217a4.635,4.635,0,0,0,1.687,2.143c2.322,1.522,3.065,3.762,3.3,6.332.114,1.233.31,2.458.473,3.686a10.562,10.562,0,0,0,4.314,7.406,2.758,2.758,0,0,1,1.143,1.857,2.7,2.7,0,0,1-1.107,2.106,3.278,3.278,0,0,1-2.658-.253c-4.144-2.718-5.937-6.835-6.479-11.614a12.925,12.925,0,0,1-.145-1.386,6,6,0,0,0-2.7-5.368,5.414,5.414,0,0,1-1.8-2.46c-1.439-3.756-4.509-4.555-8.027-4.879a48.8,48.8,0,0,1-8.64-1.326,14.318,14.318,0,0,1-4.987-2.967,7.782,7.782,0,0,1-2.672-7.375,6.3,6.3,0,0,0-.583-3.378c-1.61-3.249-.4-6.265,3.106-7.267a9.891,9.891,0,0,1,6.36.466c.77.291,1.52.636,2.29.929a2.489,2.489,0,0,0,3.019-.651c2.34-2.37,6.641-2.236,9.115.2.986.969,1.731,2.181,2.675,3.2.321.345,1.018.724,1.367.6,2.347-.847,4.582-.2,6.842.311a30.081,30.081,0,0,0,3.179.624c1.214.138,1.593-.582,1.275-1.652-.2-.685-.622-1.3-.861-1.981-.666-1.889-1.218-3.821-1.95-5.683a20.29,20.29,0,0,0-2.273-4.8c-2.239-2.993-1.259-6.427,2.334-7.345q2.993-.765,6-1.456c3.819-.876,6.533,2.072,5.381,5.827-1.07,3.484-1.077,3.541,2.58,4a11.976,11.976,0,0,0,4.117-.089,3.761,3.761,0,0,0,2.337-1.755c1.7-3.755,4.75-5.888,8.347-7.415,1.274-.541,2.635-.873,3.948-1.324a26.778,26.778,0,0,0,3.033-1.124c2.987-1.452,3.381-2.366,2.732-5.631a33.793,33.793,0,0,1-.655-4.278,7.44,7.44,0,0,1,4.85-7.834c1.266-.528,2.619-.849,3.932-1.264Z" transform="translate(-28.203 -35.327)" fill="#c10058"/>
                  <path id="Tracé_1321" data-name="Tracé 1321" d="M180.775,337.8c-.622-.776-1.242-1.52-1.828-2.29a27.463,27.463,0,0,1-2.994-4.811,11.207,11.207,0,0,1-.978-2.86,5.909,5.909,0,0,1,11.553-2.431,6.162,6.162,0,0,1-.189,3.566,19.141,19.141,0,0,1-2.075,4.21,34.729,34.729,0,0,1-3.332,4.448c-.039.044-.081.086-.157.168m.017-1.534c.046-.051.072-.078.1-.108a37.881,37.881,0,0,0,2.417-3.313,18.416,18.416,0,0,0,2.045-3.987,5.642,5.642,0,0,0,.339-2.61,4.927,4.927,0,1,0-9.735,1.5,10.694,10.694,0,0,0,1.018,2.811,29.805,29.805,0,0,0,2.959,4.6c.277.365.565.723.861,1.1" transform="translate(-93.403 -171.423)" fill="#c10058"/>
                  <path id="Tracé_1322" data-name="Tracé 1322" d="M184.172,333.224a2.955,2.955,0,1,1,2.971-2.942,2.961,2.961,0,0,1-2.971,2.942m-1.959-2.956a1.972,1.972,0,1,0,1.977-1.969,1.978,1.978,0,0,0-1.977,1.969" transform="translate(-96.787 -174.808)" fill="#c10058"/>
                  <path id="Tracé_1323" data-name="Tracé 1323" d="M225.262,296.715c-.622-.776-1.242-1.52-1.828-2.29a27.464,27.464,0,0,1-2.994-4.811,11.206,11.206,0,0,1-.978-2.86,5.909,5.909,0,0,1,11.553-2.431,6.162,6.162,0,0,1-.189,3.566,19.141,19.141,0,0,1-2.075,4.21,34.726,34.726,0,0,1-3.332,4.448c-.039.044-.081.086-.157.168m.017-1.534c.046-.051.072-.078.1-.108a37.884,37.884,0,0,0,2.417-3.313,18.417,18.417,0,0,0,2.045-3.987,5.641,5.641,0,0,0,.339-2.61,4.927,4.927,0,1,0-9.735,1.5,10.7,10.7,0,0,0,1.018,2.811,29.8,29.8,0,0,0,2.959,4.6c.277.365.565.723.861,1.1" transform="translate(-117.162 -149.479)" fill="#c10058"/>
                  <path id="Tracé_1324" data-name="Tracé 1324" d="M228.658,292.136a2.955,2.955,0,1,1,2.971-2.942,2.961,2.961,0,0,1-2.971,2.942M226.7,289.18a1.972,1.972,0,1,0,1.977-1.969,1.978,1.978,0,0,0-1.977,1.969" transform="translate(-120.546 -152.865)" fill="#c10058"/>
                  <path id="Tracé_1325" data-name="Tracé 1325" d="M182.884,260.6c-.622-.776-1.242-1.52-1.828-2.29a27.466,27.466,0,0,1-2.994-4.811,11.207,11.207,0,0,1-.978-2.86,5.909,5.909,0,0,1,11.553-2.431,6.162,6.162,0,0,1-.189,3.566,19.14,19.14,0,0,1-2.075,4.21,34.725,34.725,0,0,1-3.332,4.448c-.039.044-.081.086-.157.168m.017-1.534c.046-.051.072-.078.1-.108a37.887,37.887,0,0,0,2.417-3.313,18.417,18.417,0,0,0,2.045-3.987,5.641,5.641,0,0,0,.339-2.61,4.927,4.927,0,1,0-9.735,1.5,10.7,10.7,0,0,0,1.018,2.811,29.8,29.8,0,0,0,2.959,4.6c.277.365.565.723.861,1.1" transform="translate(-94.529 -130.192)" fill="#c10058"/>
                  <path id="Tracé_1326" data-name="Tracé 1326" d="M186.281,256.023a2.955,2.955,0,1,1,2.971-2.942,2.961,2.961,0,0,1-2.971,2.942m-1.959-2.956A1.972,1.972,0,1,0,186.3,251.1a1.978,1.978,0,0,0-1.977,1.969" transform="translate(-97.914 -133.578)" fill="#c10058"/>
                  <path id="Tracé_1327" data-name="Tracé 1327" d="M155.4,216.638c-.622-.776-1.242-1.52-1.828-2.29a27.464,27.464,0,0,1-2.994-4.811,11.209,11.209,0,0,1-.978-2.86,5.909,5.909,0,0,1,11.553-2.431,6.162,6.162,0,0,1-.189,3.566,19.141,19.141,0,0,1-2.075,4.21,34.73,34.73,0,0,1-3.332,4.448c-.039.044-.081.086-.157.168m.017-1.534c.046-.051.072-.078.1-.108a37.876,37.876,0,0,0,2.417-3.313,18.416,18.416,0,0,0,2.045-3.987,5.642,5.642,0,0,0,.339-2.61,4.927,4.927,0,1,0-9.735,1.5A10.7,10.7,0,0,0,151.6,209.4a29.8,29.8,0,0,0,2.959,4.6c.277.365.565.723.861,1.1" transform="translate(-79.852 -106.713)" fill="#c10058"/>
                  <path id="Tracé_1328" data-name="Tracé 1328" d="M158.8,212.06a2.955,2.955,0,1,1,2.971-2.942,2.961,2.961,0,0,1-2.971,2.942M156.84,209.1a1.972,1.972,0,1,0,1.977-1.969,1.978,1.978,0,0,0-1.977,1.969" transform="translate(-83.237 -110.099)" fill="#c10058"/>
                  <path id="Tracé_1329" data-name="Tracé 1329" d="M199.8,175.884c-.622-.776-1.242-1.52-1.828-2.29a27.463,27.463,0,0,1-2.994-4.811,11.207,11.207,0,0,1-.978-2.86,5.909,5.909,0,0,1,11.553-2.431,6.162,6.162,0,0,1-.189,3.566,19.139,19.139,0,0,1-2.075,4.21,34.725,34.725,0,0,1-3.332,4.448c-.039.044-.081.086-.157.168m.018-1.534c.045-.051.072-.078.1-.108a37.791,37.791,0,0,0,2.417-3.313,18.4,18.4,0,0,0,2.045-3.987,5.641,5.641,0,0,0,.339-2.61,4.927,4.927,0,1,0-9.735,1.5A10.712,10.712,0,0,0,196,168.647a29.807,29.807,0,0,0,2.959,4.6c.277.365.565.723.862,1.1" transform="translate(-103.564 -84.947)" fill="#c10058"/>
                  <path id="Tracé_1330" data-name="Tracé 1330" d="M203.2,171.306a2.955,2.955,0,1,1,2.971-2.942,2.961,2.961,0,0,1-2.971,2.942m-1.959-2.956a1.972,1.972,0,1,0,1.977-1.969,1.979,1.979,0,0,0-1.977,1.969" transform="translate(-106.949 -88.333)" fill="#c10058"/>
                  <path id="Tracé_1331" data-name="Tracé 1331" d="M237.948,120.362c-.622-.776-1.242-1.52-1.828-2.29a27.464,27.464,0,0,1-2.994-4.811,11.207,11.207,0,0,1-.978-2.86,5.909,5.909,0,0,1,11.553-2.431,6.162,6.162,0,0,1-.189,3.566,19.14,19.14,0,0,1-2.075,4.21,34.725,34.725,0,0,1-3.332,4.448c-.039.044-.081.086-.157.168m.017-1.534c.046-.051.072-.078.1-.108a37.882,37.882,0,0,0,2.417-3.313,18.417,18.417,0,0,0,2.045-3.987,5.642,5.642,0,0,0,.339-2.61,4.927,4.927,0,1,0-9.735,1.5,10.694,10.694,0,0,0,1.018,2.811,29.8,29.8,0,0,0,2.959,4.6c.277.365.565.723.861,1.1" transform="translate(-123.937 -55.295)" fill="#c10058"/>
                  <path id="Tracé_1332" data-name="Tracé 1332" d="M241.345,115.784a2.955,2.955,0,1,1,2.971-2.942,2.961,2.961,0,0,1-2.971,2.942m-1.959-2.956a1.972,1.972,0,1,0,1.977-1.969,1.978,1.978,0,0,0-1.977,1.969" transform="translate(-127.322 -58.681)" fill="#c10058"/>
                  <path id="Tracé_1333" data-name="Tracé 1333" d="M285.383,159.942c-.622-.776-1.242-1.52-1.828-2.29a27.466,27.466,0,0,1-2.994-4.811,11.206,11.206,0,0,1-.978-2.86,5.909,5.909,0,0,1,11.553-2.431,6.162,6.162,0,0,1-.189,3.566,19.141,19.141,0,0,1-2.075,4.21,34.725,34.725,0,0,1-3.332,4.448c-.039.044-.081.086-.157.168m.017-1.534c.046-.051.072-.078.1-.108a37.875,37.875,0,0,0,2.417-3.313A18.416,18.416,0,0,0,289.959,151a5.642,5.642,0,0,0,.339-2.61,4.927,4.927,0,1,0-9.735,1.5,10.693,10.693,0,0,0,1.018,2.811,29.8,29.8,0,0,0,2.959,4.6c.277.365.565.723.861,1.1" transform="translate(-149.27 -76.433)" fill="#c10058"/>
                  <path id="Tracé_1334" data-name="Tracé 1334" d="M288.78,155.364a2.955,2.955,0,1,1,2.971-2.942,2.961,2.961,0,0,1-2.971,2.942m-1.959-2.956a1.972,1.972,0,1,0,1.977-1.969,1.978,1.978,0,0,0-1.977,1.969" transform="translate(-152.655 -79.819)" fill="#c10058"/>
                  <path id="Tracé_1335" data-name="Tracé 1335" d="M248.529,200.7c-.622-.776-1.242-1.52-1.828-2.29a27.465,27.465,0,0,1-2.994-4.811,11.207,11.207,0,0,1-.978-2.86,5.909,5.909,0,0,1,11.553-2.431,6.162,6.162,0,0,1-.189,3.566,19.14,19.14,0,0,1-2.075,4.21,34.731,34.731,0,0,1-3.332,4.448c-.039.044-.081.086-.157.168m.017-1.534c.046-.051.072-.078.1-.108a37.89,37.89,0,0,0,2.417-3.313,18.417,18.417,0,0,0,2.045-3.987,5.641,5.641,0,0,0,.339-2.61,4.927,4.927,0,1,0-9.735,1.5,10.694,10.694,0,0,0,1.018,2.811,29.8,29.8,0,0,0,2.959,4.6c.277.365.565.723.861,1.1" transform="translate(-129.588 -98.199)" fill="#c10058"/>
                  <path id="Tracé_1336" data-name="Tracé 1336" d="M251.925,196.119a2.955,2.955,0,1,1,2.971-2.942,2.961,2.961,0,0,1-2.971,2.942m-1.959-2.956a1.972,1.972,0,1,0,1.977-1.969,1.978,1.978,0,0,0-1.977,1.969" transform="translate(-132.972 -101.585)" fill="#c10058"/>
                  <path id="Tracé_1337" data-name="Tracé 1337" d="M295.964,231.4c-.622-.776-1.242-1.52-1.828-2.29a27.464,27.464,0,0,1-2.994-4.811,11.207,11.207,0,0,1-.978-2.86,5.909,5.909,0,0,1,11.553-2.431,6.162,6.162,0,0,1-.189,3.566,19.142,19.142,0,0,1-2.075,4.21,34.726,34.726,0,0,1-3.332,4.448c-.039.044-.081.086-.157.168m.017-1.534c.046-.051.072-.078.1-.108a37.89,37.89,0,0,0,2.417-3.313,18.416,18.416,0,0,0,2.045-3.987,5.642,5.642,0,0,0,.339-2.61,4.927,4.927,0,1,0-9.735,1.5,10.7,10.7,0,0,0,1.018,2.811,29.8,29.8,0,0,0,2.959,4.6c.277.365.565.723.861,1.1" transform="translate(-154.921 -114.598)" fill="#c10058"/>
                  <path id="Tracé_1338" data-name="Tracé 1338" d="M299.36,226.825a2.955,2.955,0,1,1,2.971-2.942,2.961,2.961,0,0,1-2.971,2.942m-1.959-2.956a1.972,1.972,0,1,0,1.977-1.969,1.978,1.978,0,0,0-1.977,1.969" transform="translate(-158.306 -117.984)" fill="#c10058"/>
                  <path id="Tracé_1339" data-name="Tracé 1339" d="M312.882,295.566c-.622-.776-1.242-1.52-1.828-2.29a27.463,27.463,0,0,1-2.994-4.811,11.207,11.207,0,0,1-.978-2.86,5.909,5.909,0,0,1,11.553-2.431,6.162,6.162,0,0,1-.189,3.566,19.142,19.142,0,0,1-2.075,4.21,34.733,34.733,0,0,1-3.332,4.448c-.039.044-.081.086-.157.168m.017-1.534c.046-.051.072-.078.1-.108a37.882,37.882,0,0,0,2.417-3.313,18.417,18.417,0,0,0,2.045-3.987,5.642,5.642,0,0,0,.339-2.61,4.927,4.927,0,1,0-9.735,1.5,10.7,10.7,0,0,0,1.018,2.811,29.809,29.809,0,0,0,2.959,4.6c.277.365.565.723.861,1.1" transform="translate(-163.957 -148.866)" fill="#c10058"/>
                  <path id="Tracé_1340" data-name="Tracé 1340" d="M316.279,290.988a2.955,2.955,0,1,1,2.971-2.942,2.961,2.961,0,0,1-2.971,2.942m-1.959-2.956a1.972,1.972,0,1,0,1.977-1.969,1.978,1.978,0,0,0-1.977,1.969" transform="translate(-167.341 -152.251)" fill="#c10058"/>
                  <path id="Tracé_1341" data-name="Tracé 1341" d="M254.877,255.224c-.622-.776-1.242-1.52-1.828-2.29a27.466,27.466,0,0,1-2.994-4.811,11.208,11.208,0,0,1-.978-2.86,5.909,5.909,0,0,1,11.553-2.431,6.162,6.162,0,0,1-.189,3.566,19.143,19.143,0,0,1-2.075,4.21,34.733,34.733,0,0,1-3.332,4.448c-.039.044-.081.086-.157.168m.017-1.534c.046-.051.072-.078.1-.108a37.877,37.877,0,0,0,2.417-3.313,18.413,18.413,0,0,0,2.045-3.987,5.641,5.641,0,0,0,.339-2.61,4.927,4.927,0,1,0-9.735,1.5,10.694,10.694,0,0,0,1.018,2.811,29.8,29.8,0,0,0,2.959,4.6c.277.365.565.723.861,1.1" transform="translate(-132.978 -127.32)" fill="#c10058"/>
                  <path id="Tracé_1342" data-name="Tracé 1342" d="M258.274,250.647a2.955,2.955,0,1,1,2.971-2.942,2.961,2.961,0,0,1-2.971,2.942m-1.959-2.956a1.972,1.972,0,1,0,1.977-1.969,1.978,1.978,0,0,0-1.977,1.969" transform="translate(-136.363 -130.707)" fill="#c10058"/>
                  <path id="Tracé_1343" data-name="Tracé 1343" d="M331.916,334.718c-.622-.776-1.242-1.52-1.828-2.29a27.462,27.462,0,0,1-2.994-4.811,11.209,11.209,0,0,1-.978-2.86,5.909,5.909,0,0,1,11.553-2.431,6.162,6.162,0,0,1-.189,3.566,19.142,19.142,0,0,1-2.075,4.21,34.729,34.729,0,0,1-3.332,4.448c-.039.044-.081.086-.157.168m.017-1.534c.046-.051.072-.078.1-.108a37.886,37.886,0,0,0,2.417-3.313,18.416,18.416,0,0,0,2.045-3.987,5.641,5.641,0,0,0,.339-2.61,4.927,4.927,0,1,0-9.735,1.5,10.7,10.7,0,0,0,1.018,2.811,29.808,29.808,0,0,0,2.959,4.6c.277.365.565.723.861,1.1" transform="translate(-174.122 -169.776)" fill="#c10058"/>
                  <path id="Tracé_1344" data-name="Tracé 1344" d="M335.313,330.14a2.955,2.955,0,1,1,2.971-2.942,2.961,2.961,0,0,1-2.971,2.942m-1.959-2.956a1.972,1.972,0,1,0,1.977-1.969,1.978,1.978,0,0,0-1.977,1.969" transform="translate(-177.507 -173.161)" fill="#c10058"/>
                  <path id="Tracé_1345" data-name="Tracé 1345" d="M279.034,319.954c-.622-.776-1.242-1.52-1.828-2.29a27.465,27.465,0,0,1-2.994-4.811,11.206,11.206,0,0,1-.978-2.86,5.909,5.909,0,0,1,11.553-2.431,6.162,6.162,0,0,1-.189,3.566,19.14,19.14,0,0,1-2.075,4.21,34.725,34.725,0,0,1-3.332,4.448c-.039.044-.081.086-.157.168m.017-1.534c.046-.051.072-.078.1-.108A37.88,37.88,0,0,0,281.565,315a18.417,18.417,0,0,0,2.045-3.987,5.642,5.642,0,0,0,.339-2.61,4.927,4.927,0,1,0-9.735,1.5,10.694,10.694,0,0,0,1.018,2.811,29.8,29.8,0,0,0,2.959,4.6c.277.365.565.723.861,1.1" transform="translate(-145.88 -161.891)" fill="#c10058"/>
                  <path id="Tracé_1346" data-name="Tracé 1346" d="M282.431,315.376a2.955,2.955,0,1,1,2.971-2.942,2.961,2.961,0,0,1-2.971,2.942m-1.959-2.956a1.972,1.972,0,1,0,1.977-1.969,1.978,1.978,0,0,0-1.977,1.969" transform="translate(-149.264 -165.276)" fill="#c10058"/>
                  <path id="Tracé_1347" data-name="Tracé 1347" d="M227.371,358.7c-.622-.776-1.242-1.52-1.828-2.29a27.462,27.462,0,0,1-2.994-4.811,11.207,11.207,0,0,1-.978-2.86,5.909,5.909,0,0,1,11.553-2.431,6.162,6.162,0,0,1-.189,3.566,19.141,19.141,0,0,1-2.075,4.21,34.728,34.728,0,0,1-3.332,4.448c-.039.044-.081.086-.157.168m.017-1.534c.046-.051.072-.078.1-.108a37.877,37.877,0,0,0,2.417-3.313,18.417,18.417,0,0,0,2.045-3.987,5.641,5.641,0,0,0,.339-2.61,4.927,4.927,0,1,0-9.735,1.5,10.7,10.7,0,0,0,1.018,2.811,29.8,29.8,0,0,0,2.959,4.6c.277.365.565.723.861,1.1" transform="translate(-118.288 -182.582)" fill="#c10058"/>
                  <path id="Tracé_1348" data-name="Tracé 1348" d="M230.768,354.12a2.955,2.955,0,1,1,2.971-2.942,2.961,2.961,0,0,1-2.971,2.942m-1.959-2.956a1.972,1.972,0,1,0,1.977-1.969,1.978,1.978,0,0,0-1.977,1.969" transform="translate(-121.673 -185.968)" fill="#c10058"/>
                </g>
              </g>
            </g>
          </g>
          <path id="Tracé_629" data-name="Tracé 629" d="M50.531,0A50.531,50.531,0,1,1,0,50.531,50.531,50.531,0,0,1,50.531,0" transform="translate(1729.426 145.242)" fill="#1f3149"/>
          <text id="_20" data-name="+20" transform="translate(1735.488 166)" fill="#fff" font-size="47" font-family="Montserrat-Bold, Montserrat" font-weight="700"><tspan x="0" y="45">+20</tspan></text>
        </g>
      </g>
    </g>
  </g>
</svg>
